<svg xmlns="http://www.w3.org/2000/svg" version="1.1" xmlns:xlink="http://www.w3.org/1999/xlink" width="1026" height="1026"><svg xmlns="http://www.w3.org/2000/svg" version="1.1" xmlns:xlink="http://www.w3.org/1999/xlink" width="1026" height="1026"><svg width="1026" height="1026" viewBox="0 0 1026 1026" fill="none" xmlns="http://www.w3.org/2000/svg">
<g clip-path="url(#clip0_32_257)">
<path d="M846 0H180C80.5887 0 0 80.5887 0 180V846C0 945.411 80.5887 1026 180 1026H846C945.411 1026 1026 945.411 1026 846V180C1026 80.5887 945.411 0 846 0Z" fill="black"></path>
<g clip-path="url(#clip1_32_257)">
<path d="M252.841 371.025L288.31 348.664V676.808L252.841 654.447V371.025Z" fill="white"></path>
<path d="M311.887 333.683L359.142 303.721V721.749L311.887 691.788V333.683Z" fill="white"></path>
<path d="M382.71 288.74L429.966 258.778V766.691L382.71 736.729V288.74Z" fill="white"></path>
<path d="M453.535 243.799L500.79 213.838V811.635L453.535 781.673V243.799Z" fill="white"></path>
<path d="M524.371 212.735L571.626 242.807V782.663L524.371 812.735V212.735Z" fill="white"></path>
<path d="M595.195 258.009L642.451 288.08V737.392L595.195 767.574V258.009Z" fill="white"></path>
<path d="M666.127 303.17L713.272 333.351V692.118L666.127 722.299V303.17Z" fill="white"></path>
<path d="M772.322 371.025V654.447L736.963 677.028V348.443L772.322 371.025Z" fill="white"></path>
</g>
</g>
<defs>
<clipPath id="clip0_32_257">
<rect width="1026" height="1026" fill="white"></rect>
</clipPath>
<clipPath id="clip1_32_257">
<rect width="519.479" height="600" fill="white" transform="translate(252.841 212.735)"></rect>
</clipPath>
</defs>
</svg></svg><style>@media (prefers-color-scheme: light) { :root { filter: none; } }
@media (prefers-color-scheme: dark) { :root { filter: none; } }
</style></svg>